<mxfile host="65bd71144e">
    <diagram id="nWd1tCWXpb_207O9OclG" name="Page-1">
        <mxGraphModel dx="976" dy="751" grid="1" gridSize="10" guides="1" tooltips="1" connect="1" arrows="1" fold="1" page="1" pageScale="1" pageWidth="850" pageHeight="1100" math="0" shadow="0">
            <root>
                <mxCell id="0"/>
                <mxCell id="1" parent="0"/>
                <mxCell id="2" value="Start" style="rounded=1;whiteSpace=wrap;html=1;" vertex="1" parent="1">
                    <mxGeometry x="140" y="10" width="120" height="30" as="geometry"/>
                </mxCell>
                <mxCell id="3" value="Wallet file exist ?" style="rhombus;whiteSpace=wrap;html=1;" vertex="1" parent="1">
                    <mxGeometry x="160" y="120" width="80" height="80" as="geometry"/>
                </mxCell>
                <mxCell id="4" value="Create Wallet File" style="rounded=0;whiteSpace=wrap;html=1;" vertex="1" parent="1">
                    <mxGeometry x="290" y="144" width="120" height="30" as="geometry"/>
                </mxCell>
                <mxCell id="5" value="Set MaxWalletValue dummy dollars to Wallet File" style="shape=process;whiteSpace=wrap;html=1;backgroundOutline=1;" vertex="1" parent="1">
                    <mxGeometry x="290" y="210" width="120" height="60" as="geometry"/>
                </mxCell>
                <mxCell id="6" value="MaxWalletValue = 50" style="rounded=0;whiteSpace=wrap;html=1;" vertex="1" parent="1">
                    <mxGeometry x="140" y="70" width="120" height="30" as="geometry"/>
                </mxCell>
                <mxCell id="8" value="Is this &lt;br&gt;the&amp;nbsp;first of the month?" style="rhombus;whiteSpace=wrap;html=1;" vertex="1" parent="1">
                    <mxGeometry x="160" y="330" width="80" height="80" as="geometry"/>
                </mxCell>
                <mxCell id="10" value="Set MaxWalletValue dummy dollars to Wallet File" style="shape=process;whiteSpace=wrap;html=1;backgroundOutline=1;" vertex="1" parent="1">
                    <mxGeometry x="290" y="340" width="120" height="60" as="geometry"/>
                </mxCell>
                <mxCell id="11" value="" style="endArrow=classic;html=1;entryX=0.5;entryY=0;entryDx=0;entryDy=0;" edge="1" parent="1" target="6">
                    <mxGeometry width="50" height="50" relative="1" as="geometry">
                        <mxPoint x="200" y="40" as="sourcePoint"/>
                        <mxPoint x="250" y="-10" as="targetPoint"/>
                    </mxGeometry>
                </mxCell>
                <mxCell id="12" value="" style="endArrow=classic;html=1;exitX=0.5;exitY=1;exitDx=0;exitDy=0;entryX=0.5;entryY=0;entryDx=0;entryDy=0;" edge="1" parent="1" source="6" target="3">
                    <mxGeometry width="50" height="50" relative="1" as="geometry">
                        <mxPoint x="200" y="130" as="sourcePoint"/>
                        <mxPoint x="250" y="80" as="targetPoint"/>
                    </mxGeometry>
                </mxCell>
                <mxCell id="13" value="no" style="endArrow=classic;html=1;entryX=0;entryY=0.5;entryDx=0;entryDy=0;" edge="1" parent="1" target="4">
                    <mxGeometry width="50" height="50" relative="1" as="geometry">
                        <mxPoint x="240" y="160" as="sourcePoint"/>
                        <mxPoint x="290" y="110" as="targetPoint"/>
                    </mxGeometry>
                </mxCell>
                <mxCell id="14" value="" style="endArrow=classic;html=1;entryX=0.5;entryY=0;entryDx=0;entryDy=0;" edge="1" parent="1" target="5">
                    <mxGeometry width="50" height="50" relative="1" as="geometry">
                        <mxPoint x="350" y="174" as="sourcePoint"/>
                        <mxPoint x="400" y="124" as="targetPoint"/>
                    </mxGeometry>
                </mxCell>
                <mxCell id="15" value="yes" style="endArrow=classic;html=1;entryX=0.5;entryY=0;entryDx=0;entryDy=0;" edge="1" parent="1" target="8">
                    <mxGeometry x="-0.6923" width="50" height="50" relative="1" as="geometry">
                        <mxPoint x="200" y="200" as="sourcePoint"/>
                        <mxPoint x="250" y="150" as="targetPoint"/>
                        <mxPoint as="offset"/>
                    </mxGeometry>
                </mxCell>
                <mxCell id="16" value="" style="endArrow=classic;html=1;" edge="1" parent="1">
                    <mxGeometry width="50" height="50" relative="1" as="geometry">
                        <mxPoint x="350" y="270" as="sourcePoint"/>
                        <mxPoint x="200" y="300" as="targetPoint"/>
                        <Array as="points">
                            <mxPoint x="350" y="300"/>
                        </Array>
                    </mxGeometry>
                </mxCell>
                <mxCell id="17" value="yes" style="endArrow=classic;html=1;entryX=0;entryY=0.5;entryDx=0;entryDy=0;" edge="1" parent="1" target="10">
                    <mxGeometry width="50" height="50" relative="1" as="geometry">
                        <mxPoint x="240" y="370" as="sourcePoint"/>
                        <mxPoint x="290" y="320" as="targetPoint"/>
                    </mxGeometry>
                </mxCell>
                <mxCell id="18" value="Show UX, wait user input" style="shape=process;whiteSpace=wrap;html=1;backgroundOutline=1;" vertex="1" parent="1">
                    <mxGeometry x="140" y="470" width="120" height="40" as="geometry"/>
                </mxCell>
                <mxCell id="19" value="" style="endArrow=classic;html=1;entryX=0.5;entryY=0;entryDx=0;entryDy=0;" edge="1" parent="1" target="18">
                    <mxGeometry width="50" height="50" relative="1" as="geometry">
                        <mxPoint x="200" y="410" as="sourcePoint"/>
                        <mxPoint x="250" y="360" as="targetPoint"/>
                    </mxGeometry>
                </mxCell>
                <mxCell id="20" value="" style="endArrow=classic;html=1;" edge="1" parent="1">
                    <mxGeometry width="50" height="50" relative="1" as="geometry">
                        <mxPoint x="350" y="400" as="sourcePoint"/>
                        <mxPoint x="200" y="440" as="targetPoint"/>
                        <Array as="points">
                            <mxPoint x="350" y="440"/>
                        </Array>
                    </mxGeometry>
                </mxCell>
                <mxCell id="21" value="Refresh" style="rounded=1;whiteSpace=wrap;html=1;" vertex="1" parent="1">
                    <mxGeometry x="10" y="210" width="120" height="30" as="geometry"/>
                </mxCell>
                <mxCell id="22" value="" style="endArrow=classic;html=1;" edge="1" parent="1">
                    <mxGeometry width="50" height="50" relative="1" as="geometry">
                        <mxPoint x="70" y="240" as="sourcePoint"/>
                        <mxPoint x="200" y="300" as="targetPoint"/>
                        <Array as="points">
                            <mxPoint x="70" y="300"/>
                        </Array>
                    </mxGeometry>
                </mxCell>
                <mxCell id="23" value="Show UX, wait user input&lt;br&gt;---------------------&lt;br&gt;Display:&lt;br&gt;&lt;div style=&quot;text-align: left;&quot;&gt;&lt;span style=&quot;background-color: initial;&quot;&gt;- current date/time (needs to auto update)&lt;/span&gt;&lt;/div&gt;&lt;div style=&quot;text-align: left;&quot;&gt;&lt;span style=&quot;background-color: initial;&quot;&gt;- wallet value&lt;/span&gt;&lt;/div&gt;&lt;div style=&quot;text-align: left;&quot;&gt;&lt;span style=&quot;background-color: initial;&quot;&gt;- tokens button (needs to be disabled if wallet empty)&lt;/span&gt;&lt;/div&gt;&lt;div style=&quot;text-align: left;&quot;&gt;&lt;br&gt;&lt;/div&gt;&lt;div style=&quot;text-align: left;&quot;&gt;&lt;span style=&quot;background-color: initial;&quot;&gt;- refresh button&lt;/span&gt;&lt;/div&gt;" style="shape=process;whiteSpace=wrap;html=1;backgroundOutline=1;" vertex="1" parent="1">
                    <mxGeometry x="490" y="50" width="210" height="140" as="geometry"/>
                </mxCell>
                <mxCell id="25" value="Wait user input" style="rounded=1;whiteSpace=wrap;html=1;" vertex="1" parent="1">
                    <mxGeometry x="535" y="220" width="120" height="30" as="geometry"/>
                </mxCell>
                <mxCell id="28" value="Refresh button clicked ?" style="rhombus;whiteSpace=wrap;html=1;" vertex="1" parent="1">
                    <mxGeometry x="555" y="270" width="80" height="80" as="geometry"/>
                </mxCell>
                <mxCell id="29" value="Goto Refresh" style="rounded=1;whiteSpace=wrap;html=1;" vertex="1" parent="1">
                    <mxGeometry x="690" y="295" width="120" height="30" as="geometry"/>
                </mxCell>
                <mxCell id="30" value="Tokens button clicked ?" style="rhombus;whiteSpace=wrap;html=1;" vertex="1" parent="1">
                    <mxGeometry x="555" y="380" width="80" height="80" as="geometry"/>
                </mxCell>
                <mxCell id="31" value="Prompt for token amount (limited to value in wallet only), allow cancel confirm" style="rounded=1;whiteSpace=wrap;html=1;" vertex="1" parent="1">
                    <mxGeometry x="690" y="390" width="120" height="60" as="geometry"/>
                </mxCell>
                <mxCell id="33" value="Generate QRC&lt;br&gt;---------------------&lt;br&gt;- user name&lt;br&gt;- date&lt;br&gt;- amount" style="shape=process;whiteSpace=wrap;html=1;backgroundOutline=1;" vertex="1" parent="1">
                    <mxGeometry x="690" y="490" width="120" height="80" as="geometry"/>
                </mxCell>
                <mxCell id="34" value="" style="endArrow=classic;html=1;entryX=0.5;entryY=0;entryDx=0;entryDy=0;exitX=0.5;exitY=1;exitDx=0;exitDy=0;" edge="1" parent="1" source="23" target="25">
                    <mxGeometry width="50" height="50" relative="1" as="geometry">
                        <mxPoint x="600" y="190" as="sourcePoint"/>
                        <mxPoint x="650" y="140" as="targetPoint"/>
                    </mxGeometry>
                </mxCell>
                <mxCell id="35" value="" style="endArrow=classic;html=1;entryX=0.5;entryY=0;entryDx=0;entryDy=0;" edge="1" parent="1" target="28">
                    <mxGeometry width="50" height="50" relative="1" as="geometry">
                        <mxPoint x="595" y="250" as="sourcePoint"/>
                        <mxPoint x="650" y="220" as="targetPoint"/>
                    </mxGeometry>
                </mxCell>
                <mxCell id="36" value="" style="endArrow=classic;html=1;entryX=0;entryY=0.5;entryDx=0;entryDy=0;" edge="1" parent="1" target="29">
                    <mxGeometry width="50" height="50" relative="1" as="geometry">
                        <mxPoint x="635" y="311" as="sourcePoint"/>
                        <mxPoint x="685" y="261" as="targetPoint"/>
                    </mxGeometry>
                </mxCell>
                <mxCell id="37" value="" style="endArrow=classic;html=1;entryX=0.5;entryY=0;entryDx=0;entryDy=0;" edge="1" parent="1" target="30">
                    <mxGeometry width="50" height="50" relative="1" as="geometry">
                        <mxPoint x="595" y="350" as="sourcePoint"/>
                        <mxPoint x="640" y="300" as="targetPoint"/>
                    </mxGeometry>
                </mxCell>
                <mxCell id="38" value="" style="endArrow=classic;html=1;entryX=0;entryY=0.5;entryDx=0;entryDy=0;" edge="1" parent="1" target="31">
                    <mxGeometry width="50" height="50" relative="1" as="geometry">
                        <mxPoint x="630" y="420" as="sourcePoint"/>
                        <mxPoint x="680" y="370" as="targetPoint"/>
                    </mxGeometry>
                </mxCell>
                <mxCell id="41" value="pop up QRC code, click confirm/cancel" style="rounded=0;whiteSpace=wrap;html=1;" vertex="1" parent="1">
                    <mxGeometry x="690" y="600" width="120" height="60" as="geometry"/>
                </mxCell>
                <mxCell id="42" value="" style="endArrow=classic;html=1;exitX=1;exitY=0.5;exitDx=0;exitDy=0;entryX=0.988;entryY=0.348;entryDx=0;entryDy=0;entryPerimeter=0;" edge="1" parent="1" source="53" target="23">
                    <mxGeometry x="-0.0505" width="50" height="50" relative="1" as="geometry">
                        <mxPoint x="800" y="730" as="sourcePoint"/>
                        <mxPoint x="600" y="200" as="targetPoint"/>
                        <Array as="points">
                            <mxPoint x="830" y="810"/>
                            <mxPoint x="830" y="200"/>
                            <mxPoint x="830" y="100"/>
                        </Array>
                        <mxPoint as="offset"/>
                    </mxGeometry>
                </mxCell>
                <mxCell id="48" value="&lt;br&gt;" style="edgeLabel;html=1;align=center;verticalAlign=middle;resizable=0;points=[];" vertex="1" connectable="0" parent="42">
                    <mxGeometry x="0.4667" y="-1" relative="1" as="geometry">
                        <mxPoint as="offset"/>
                    </mxGeometry>
                </mxCell>
                <mxCell id="43" value="" style="endArrow=classic;html=1;" edge="1" parent="1" target="33">
                    <mxGeometry width="50" height="50" relative="1" as="geometry">
                        <mxPoint x="750" y="450" as="sourcePoint"/>
                        <mxPoint x="800" y="400" as="targetPoint"/>
                    </mxGeometry>
                </mxCell>
                <mxCell id="44" value="" style="endArrow=classic;html=1;entryX=0.5;entryY=0;entryDx=0;entryDy=0;" edge="1" parent="1" target="41">
                    <mxGeometry width="50" height="50" relative="1" as="geometry">
                        <mxPoint x="750" y="570" as="sourcePoint"/>
                        <mxPoint x="800" y="520" as="targetPoint"/>
                    </mxGeometry>
                </mxCell>
                <mxCell id="45" value="pop up message to show to bartender, then another confirm/cancel" style="rounded=0;whiteSpace=wrap;html=1;" vertex="1" parent="1">
                    <mxGeometry x="690" y="690" width="120" height="60" as="geometry"/>
                </mxCell>
                <mxCell id="50" value="" style="endArrow=classic;html=1;exitX=1;exitY=0.5;exitDx=0;exitDy=0;" edge="1" parent="1" source="31">
                    <mxGeometry width="50" height="50" relative="1" as="geometry">
                        <mxPoint x="800" y="440" as="sourcePoint"/>
                        <mxPoint x="830" y="420" as="targetPoint"/>
                    </mxGeometry>
                </mxCell>
                <mxCell id="51" value="" style="endArrow=classic;html=1;" edge="1" parent="1">
                    <mxGeometry width="50" height="50" relative="1" as="geometry">
                        <mxPoint x="810" y="630" as="sourcePoint"/>
                        <mxPoint x="830" y="630" as="targetPoint"/>
                    </mxGeometry>
                </mxCell>
                <mxCell id="52" value="" style="endArrow=classic;html=1;entryX=0.5;entryY=0;entryDx=0;entryDy=0;" edge="1" parent="1" target="45">
                    <mxGeometry width="50" height="50" relative="1" as="geometry">
                        <mxPoint x="750" y="660" as="sourcePoint"/>
                        <mxPoint x="800" y="610" as="targetPoint"/>
                    </mxGeometry>
                </mxCell>
                <mxCell id="53" value="Subtract num tokens from wallet" style="rounded=0;whiteSpace=wrap;html=1;" vertex="1" parent="1">
                    <mxGeometry x="690" y="780" width="120" height="60" as="geometry"/>
                </mxCell>
                <mxCell id="54" value="" style="endArrow=classic;html=1;entryX=0.5;entryY=0;entryDx=0;entryDy=0;" edge="1" parent="1" target="53">
                    <mxGeometry width="50" height="50" relative="1" as="geometry">
                        <mxPoint x="750" y="750" as="sourcePoint"/>
                        <mxPoint x="800" y="700" as="targetPoint"/>
                    </mxGeometry>
                </mxCell>
                <mxCell id="56" value="" style="endArrow=classic;html=1;" edge="1" parent="1">
                    <mxGeometry width="50" height="50" relative="1" as="geometry">
                        <mxPoint x="810" y="720" as="sourcePoint"/>
                        <mxPoint x="830" y="720" as="targetPoint"/>
                    </mxGeometry>
                </mxCell>
            </root>
        </mxGraphModel>
    </diagram>
</mxfile>